<?xml version="1.0" encoding="UTF-8"?>
<svg xmlns="http://www.w3.org/2000/svg" xmlns:xlink="http://www.w3.org/1999/xlink" width="128" height="128">
  <defs>
    <linearGradient id="f">
      <stop offset="0" stop-color="#fff" stop-opacity="0"/>
      <stop offset=".5" stop-color="#fff" stop-opacity="0"/>
      <stop offset="1" stop-color="#fff"/>
    </linearGradient>
    <linearGradient id="e">
      <stop offset="0" stop-color="#0e7309"/>
      <stop offset="1" stop-color="#70d13e"/>
    </linearGradient>
    <linearGradient id="d">
      <stop offset="0" stop-color="#2c8300"/>
      <stop offset=".25" stop-color="#3db800"/>
      <stop offset=".5" stop-color="#fff"/>
      <stop offset="1" stop-color="#69cf35"/>
    </linearGradient>
    <linearGradient id="c">
      <stop offset="0" stop-color="#002f32"/>
      <stop offset="1" stop-color="#045b04"/>
    </linearGradient>
    <linearGradient id="b">
      <stop offset="0" stop-color="#fff"/>
      <stop offset=".5" stop-color="#fdd99a"/>
      <stop offset="1" stop-color="#c39539"/>
    </linearGradient>
    <linearGradient id="a">
      <stop offset="0" stop-color="#7d491f"/>
      <stop offset="1" stop-color="#926600"/>
    </linearGradient>
    <linearGradient id="w" x1="41.946" x2="41.946" y1="46.665" y2="82.333" gradientUnits="userSpaceOnUse" xlink:href="#a"/>
    <radialGradient id="v" cx="53.602" cy="59.729" r="17.834" fx="53.602" fy="59.729" gradientTransform="matrix(0 1.65585 -1.63919 0 152.15 -32.924)" gradientUnits="userSpaceOnUse" xlink:href="#b"/>
    <linearGradient id="q" x1="83.281" x2="83.281" y1="123.098" y2="66.311" gradientUnits="userSpaceOnUse" xlink:href="#c"/>
    <radialGradient id="r" cx="491.522" cy="670.925" r="36.427" fx="491.522" fy="670.925" gradientTransform="matrix(0 2.02378 -1.95805 0 1805.23 -312.495)" gradientUnits="userSpaceOnUse" xlink:href="#d"/>
    <linearGradient id="t" x1="517.022" x2="517.022" y1="705.484" y2="745.301" gradientTransform="matrix(-1 0 0 1 983.326 0)" gradientUnits="userSpaceOnUse" xlink:href="#e"/>
    <linearGradient id="s" x1="517.022" x2="517.022" y1="705.484" y2="745.301" gradientTransform="translate(-.12)" gradientUnits="userSpaceOnUse" xlink:href="#e"/>
    <radialGradient id="u" cx="479.683" cy="709.658" r="5.006" fx="479.683" fy="709.658" gradientTransform="matrix(1.23398 -.1516 .1908 1.553 -247.635 -320.152)" gradientUnits="userSpaceOnUse" xlink:href="#f"/>
    <linearGradient id="l" x1="501.429" x2="501.429" y1="243.722" y2="177.438" gradientTransform="translate(-382.894 -166.56)" gradientUnits="userSpaceOnUse" xlink:href="#g"/>
    <linearGradient id="k" x1="431.211" x2="431.211" y1="243.722" y2="177.438" gradientTransform="translate(-382.894 -166.56)" gradientUnits="userSpaceOnUse" xlink:href="#h"/>
    <linearGradient id="n" x1="501.429" x2="501.429" y1="243.722" y2="177.438" gradientTransform="translate(-382.894 -166.56)" gradientUnits="userSpaceOnUse" xlink:href="#g"/>
    <linearGradient id="m" x1="480.272" x2="456.394" y1="208.115" y2="211.246" gradientTransform="translate(-382.894 -166.56)" gradientUnits="userSpaceOnUse" xlink:href="#i"/>
    <linearGradient id="o" x1="459.447" x2="442.968" y1="161.518" y2="218.452" gradientTransform="translate(-382.894 -166.56)" gradientUnits="userSpaceOnUse" xlink:href="#j"/>
    <linearGradient id="p" x1="501.429" x2="501.429" y1="243.722" y2="177.438" gradientTransform="translate(-382.894 -166.56)" gradientUnits="userSpaceOnUse" xlink:href="#g"/>
    <linearGradient id="j">
      <stop offset="0" stop-color="#fff"/>
      <stop offset="1" stop-color="#d8d8e5"/>
    </linearGradient>
    <linearGradient id="h">
      <stop offset="0" stop-color="#bdbdcb"/>
      <stop offset="1" stop-color="#b3b3c9"/>
    </linearGradient>
    <linearGradient id="g">
      <stop offset="0" stop-color="#5b5b5a"/>
      <stop offset="1" stop-color="#9191a7"/>
    </linearGradient>
    <linearGradient id="i">
      <stop offset="0" stop-color="#dadae4"/>
      <stop offset="1" stop-color="#a0a0b7"/>
    </linearGradient>
  </defs>
  <g color="#000">
    <path fill-rule="evenodd" d="M86.305 13.213l-3.812 6.968-3.531 1.375-6.438-5.937c-3.928 1.5-9.094 6.312-9.094 6.312-2.904 2.526-3.656 4.938-3.656 4.938l3.281 5.406-6.437-.125s-1.136.277-3.156 3.813c-2.02 3.535-2.032 11.593-2.032 11.593l7.844 3.032c.253 1.389.625 2.53.625 2.53l-4.656 7.47 8.437 9.093 6.188-3.156 4.437 3 .625 7.469c5.051 1.641 11.5 1.5 11.5 1.5 2.526-2.526 4.907-6.313 4.907-6.313 1.515-.252 3.03-.75 3.03-.75l6.188 5.563c8.334-4.798 12-11.375 12-11.375l-3.53-5.938 6.937.125 3.78-6.687.907-8.594-7.344-3.156-.875-4.156 4.813-5.563-7.344-8.719-7.437 3.032-4.188-2.75-.125-7.47-11.844-2.53zM82.93 37.088c2.513-.191 5.476.68 8.094 2.593 4.655 3.402 6.492 8.844 4.094 12.125-2.398 3.281-8.127 3.183-12.781-.218-4.655-3.402-6.492-8.845-4.094-12.125 1.049-1.436 2.733-2.227 4.687-2.375z" opacity=".6" style="marker:none"/>
    <path fill="url(#k)" fill-rule="evenodd" stroke="url(#l)" stroke-width="1.5" d="M83.691 11.378l-3.812 6.969-3.531 1.375-6.438-5.938c-3.928 1.5-9.094 6.313-9.094 6.313-2.904 2.525-3.656 4.937-3.656 4.937l3.281 5.406-6.437-.125s-1.136.277-3.156 3.813c-2.02 3.535-2.032 11.594-2.032 11.594l7.844 3.03c.253 1.39.625 2.532.625 2.532l-4.656 7.469 8.437 9.094 6.188-3.157 4.437 3 .625 7.47c5.051 1.64 11.5 1.5 11.5 1.5 2.526-2.526 4.907-6.313 4.907-6.313 1.515-.253 3.031-.75 3.031-.75l6.187 5.562c8.334-4.798 12-11.375 12-11.375l-3.53-5.937 6.937.125 3.781-6.688.906-8.594-7.344-3.156-.875-4.156 4.813-5.563-7.344-8.718-7.437 3.03-4.188-2.75-.125-7.468-11.844-2.531zm-3.375 23.875c2.513-.19 5.476.68 8.094 2.594 4.655 3.401 6.492 8.844 4.094 12.125-2.398 3.28-8.127 3.182-12.781-.22-4.655-3.4-6.492-8.843-4.094-12.124 1.049-1.436 2.733-2.227 4.687-2.375z" style="marker:none" transform="translate(4.89 -.442)"/>
    <path fill="url(#m)" fill-rule="evenodd" stroke="url(#n)" d="M67.769 28.338l-.5 19.545c.252 1.39.625 2.531.625 2.531l9.969 6.835 26.093-2.023L101.3 43.36l-5.64-17.808-27.891 2.786zm12.547 6.915c2.513-.19 5.476.68 8.094 2.594 4.655 3.401 6.492 8.844 4.094 12.125-2.398 3.28-8.127 3.182-12.781-.22-4.655-3.4-6.492-8.843-4.094-12.124 1.049-1.436 2.733-2.227 4.687-2.375z" style="marker:none" transform="translate(4.89 -.442)"/>
    <path fill="#c5c5d5" fill-rule="evenodd" d="M83.142 58.193l-6.386 9.477 1.003 6.938c1.926 1.566 7.86 1.328 7.86 1.328l2.408.294 2.18-7.326-7.065-10.71z" style="marker:none"/>
    <path fill="url(#o)" fill-rule="evenodd" d="M84.178 12.966s-2.831 5.242-3.134 6.389c-2.652.434-5.259 1.554-5.259 1.554l-6.312-5.906c-2.354 1.315-4.709 2.94-7.063 5.219l3.531 7.062c-2.146 1.326-3.03 4.375-3.03 4.375l-8.032-.187-1.438 8.906 8 2.25c.064 2.399 1.97 5.812 1.97 5.812l-5.5 5.25 5.874 6.625 6.5-2.718c1.894 1.767 6.25 3.718 6.25 3.718l-.187 6.907 8.968 1.125 2.97-6.438c2.84.19 5.937-.562 5.937-.562l4.781 5.406 8.719-5.719-3.219-5.687c1.515-2.02 2.906-4.875 2.906-4.875l8.031.25.813-8.438-6.813-2.344c-.126-2.778-1.593-6-1.593-6l5.125-5.25-5.75-7.312-7.438 2.791c-1.255-1.342-3.371-2.469-5.625-3.479l-.187-6.75-9.795-1.974zm-1.616 17.16c4.726-.29 9.675 1.877 12.275 6.666 3.466 6.386 1.843 13.406-3.958 16.555-5.801 3.148-13.315.542-16.781-5.844-3.467-6.386-1.583-13.09 4.218-16.238 1.45-.787 2.671-1.042 4.246-1.139z" style="marker:none" transform="translate(4.89 -.442)"/>
    <path fill="#a9a9bc" fill-rule="evenodd" d="M59.77 31.03l-1.438 8.906c-2.471 2.783-3.867 4.838-3.867 4.838s-1.313-8.344 4.016-14.469l1.289.724z" style="marker:none"/>
    <path fill="#b5b5c5" fill-rule="evenodd" d="M99.113 61.904l4.782 5.407-1.12 7.534-6.197-5.971 2.535-6.97z" style="marker:none"/>
    <path fill="#c5c5d5" fill-rule="evenodd" d="M68.676 59.873l-2.794 7.162 6.1-3.04 3.194-6.84-6.5 2.718z" style="marker:none"/>
    <path fill="none" stroke="url(#p)" stroke-width="1.5" d="M83.691 11.378l-3.812 6.969-3.531 1.375-6.438-5.938c-3.928 1.5-9.094 6.313-9.094 6.313-2.904 2.525-3.656 4.937-3.656 4.937l3.281 5.406-6.437-.125s-1.136.277-3.156 3.813c-2.02 3.535-2.032 11.594-2.032 11.594l7.844 3.03c.253 1.39.625 2.532.625 2.532l-4.656 7.469 8.437 9.094 6.188-3.157 4.437 3 .625 7.47c5.051 1.64 11.5 1.5 11.5 1.5 2.526-2.526 4.907-6.313 4.907-6.313 1.515-.253 3.031-.75 3.031-.75l6.187 5.562c8.334-4.798 12-11.375 12-11.375l-3.53-5.937 6.937.125 3.781-6.688.906-8.594-7.344-3.156-.875-4.156 4.813-5.563-7.344-8.718-7.437 3.03-4.188-2.75-.125-7.468-11.844-2.531zm-3.375 23.875c2.513-.19 5.476.68 8.094 2.594 4.655 3.401 6.492 8.844 4.094 12.125-2.398 3.28-8.127 3.182-12.781-.22-4.655-3.4-6.492-8.843-4.094-12.124 1.049-1.436 2.733-2.227 4.687-2.375z" style="marker:none" transform="translate(4.89 -.442)"/>
  </g>
  <path d="M44.927 5.45c-14.717 0-26.695 11.979-26.695 26.695 0 14.717 11.978 26.695 26.695 26.695s26.695-11.978 26.695-26.695c0-14.716-11.978-26.695-26.695-26.695z" opacity=".5"/>
  <path d="M44.844 42.719c-21.635 0-39.188 17.347-39.188 38.75v6.125c0 6.053 6.276 18.75 28.906 18.75h20.532c22.63 0 28.937-12.08 28.937-18.75v-6.125c0-21.403-17.553-38.75-39.187-38.75z" opacity=".5"/>
  <path fill="url(#q)" d="M44.094 59.469c-21.635 0-39.188 17.347-39.188 38.75v6.125c0 6.053 6.276 18.75 28.907 18.75h20.53c22.631 0 28.938-12.08 28.938-18.75v-6.125c0-21.403-17.553-38.75-39.187-38.75z" transform="translate(0 -18)"/>
  <path fill="url(#r)" d="M491.522 698.563c-20.11 0-36.426 15.907-36.426 35.533v5.617c0 5.55 5.833 17.193 26.87 17.193h19.084c21.036 0 26.899-11.077 26.899-17.193v-5.617c0-19.626-16.316-35.533-36.427-35.533z" transform="translate(-447.429 -654.934)"/>
  <path fill="none" stroke="url(#s)" stroke-width="1.5" d="M509.009 705.874c8.463 9.062 14.915 24.098 16.805 38.653" transform="translate(-447.429 -654.934)"/>
  <path fill="none" stroke="url(#t)" stroke-width="1.5" d="M474.197 705.874c-8.463 9.062-14.915 24.098-16.805 38.653" transform="translate(-447.429 -654.934)"/>
  <path fill="#c5ffbd" fill-rule="evenodd" stroke="#52aa5d" d="M37.402 55.142c-2.303 1.974-4.962 3.53-3.721 8.283-5.661-1.147-9.95-8.89-6.362-14.405l10.083 6.122z"/>
  <path fill="#ff2600" stroke="maroon" stroke-linecap="square" stroke-width="1.001" d="M44.174 67.762l-6.323-10.953h12.647l-6.324 10.953z"/>
  <path fill="#a0ff74" fill-rule="evenodd" stroke="#5eaa5e" d="M50.537 55.142c2.782 1.494 6.042 3.41 4.801 8.163 4.94-2.107 8.87-8.77 5.282-14.285l-10.083 6.122z"/>
  <path fill="url(#u)" fill-rule="evenodd" d="M474.969 704.656l9 5.469c-.988.815-2.014 1.646-2.75 2.781-.75 1.156-.984 2.742-.656 4.719-2.37-.729-4.494-2.645-5.657-5.063-1.203-2.502-1.348-5.403.063-7.906z" transform="translate(-447.429 -654.934)"/>
  <path fill="url(#v)" stroke="url(#w)" stroke-linecap="square" stroke-width="1.337" d="M76.945 64.5c.003 9.481-7.683 17.169-17.165 17.169s-17.168-7.688-17.166-17.17c-.002-9.482 7.684-17.17 17.166-17.17s17.168 7.688 17.165 17.17z" transform="translate(-45.258 -65.6) scale(1.49604)"/>
  <g fill-rule="evenodd">
    <path fill="#001873" stroke="#fefefe" stroke-width="5" d="M264.661 311.011c24.94 41.905 47.334 76.684 72.273 118.589 51.236-24.6 72.951-32.913 117.57-48.352 19.51 5.599 40.04-4.58 48.352-12.215 36.815-5.09 79.738-11.197 121.134-15.269-1.018-6.616 1.017-9.161 0-15.778-42.923-31.386-86.355-64.299-129.277-95.685-78.38 22.225-151.671 46.485-230.052 68.71z" transform="matrix(-.34996 0 0 .19813 219.886 41.693)"/>
    <path fill="#fff" stroke="#001873" stroke-width="3.75" d="M274.331 312.538l67.184 106.882c39.699-20.867 86.822-51.95 123.688-43.647-1.789-12.272 3.98-19.145 11.187-27.099-59.888-10.348-89.747 24.091-132.33 40.718l-2.545 25.957c1.187-8.313 1.357-16.626 2.544-24.94-19.34-30.028-42.243-67.692-61.584-97.72-6.277 3.053-6.956 12.724-8.144 19.849z" transform="matrix(-.34996 0 0 .19813 219.886 41.693)"/>
    <path fill="#fff" stroke="#001873" stroke-width="3.75" d="M470.791 360.38c16.457-31.385 29.803-33.603 62.094-38.172 25.298-3.58 43.036-2.735 68.823-3.922-2.205 7.464 1.584 17.325 4.977 27.335-24.26 1.018-43.432-.51-70.237 3.053-17.814-1.526-33.592 9.67-45.298 21.377 1.018-21.716-11.197-8.313-20.359-9.67z" transform="matrix(-.34996 0 0 .19813 219.886 41.693)"/>
    <path fill="#fff" stroke="#001873" stroke-width="2.5" d="M396.483 273.857l76.344 73.8c-61.67-7.635-94.582 29.774-129.276 41.989-20.02-31.725-41.311-65.487-61.33-97.212 25.108-12.046 41.685-31.891 78.125-34.864 14.125-1.152 25.11 8.313 36.137 16.287zm80.014 75.06c18.954-32.03 58.062-27.352 124.882-32.39l-105.808-71.979c-46.186 8.997-77.257-10.077-102.21 25.552l83.136 78.817z" transform="matrix(-.34996 0 0 .19813 219.886 41.693)"/>
  </g>
</svg>
