<?xml version="1.0" encoding="UTF-8" standalone="no"?>
<!--part of the rodentia icon theme by sixsixfive released under CC0 (https://creativecommons.org/publicdomain/zero/1.0/) on openclipart-->
<svg xmlns="http://www.w3.org/2000/svg" xmlns:xlink="http://www.w3.org/1999/xlink" viewBox="0 0 48 48">
 <defs id="0">
  <linearGradient id="2">
   <stop id="16" stop-color="#2e3436" stop-opacity="0.432"/>
   <stop id="17" offset="1" stop-color="#888a85" stop-opacity="0.187"/>
  </linearGradient>
  <linearGradient id="3">
   <stop id="18" stop-color="#babdb6"/>
   <stop id="19" offset="1" stop-color="#888a85"/>
  </linearGradient>
  <linearGradient id="4">
   <stop id="1A" stop-color="#eeeeec"/>
   <stop id="1B" offset="1" stop-color="#aeaea3"/>
  </linearGradient>
  <linearGradient id="5">
   <stop id="1C" stop-color="#eeeeec"/>
   <stop id="1D" offset="1" stop-color="#d3d7cf"/>
  </linearGradient>
  <linearGradient id="6">
   <stop id="1E" stop-color="#2e3436"/>
   <stop id="1F" offset="1" stop-color="#2e3436" stop-opacity="0"/>
  </linearGradient>
  <linearGradient id="7">
   <stop id="1G" stop-color="#fff"/>
   <stop id="1H" offset="1" stop-color="#fff" stop-opacity="0"/>
  </linearGradient>
  <linearGradient id="8">
   <stop id="1I" stop-color="#fff" stop-opacity="0.8"/>
   <stop id="1J" offset="1" stop-color="#fff" stop-opacity="0"/>
  </linearGradient>
  <linearGradient id="9">
   <stop id="1K" stop-color="#3465a4"/>
   <stop id="1L" offset="1" stop-color="#729fcf"/>
  </linearGradient>
  <linearGradient id="A">
   <stop id="1M" stop-color="#204a87"/>
   <stop id="1N" offset="1" stop-color="#729fcf"/>
  </linearGradient>
  <linearGradient id="B">
   <stop id="1O" stop-color="#2e3436"/>
   <stop id="1P" offset="1" stop-color="#555753"/>
  </linearGradient>
  <radialGradient cx="29" cy="46.43" r="26.665" id="C" xlink:href="#6" gradientUnits="userSpaceOnUse" gradientTransform="matrix(1,0,0,0.04,0,44.568497)"/>
  <linearGradient y1="4.156" x2="0" y2="43.844" id="D" xlink:href="#8" gradientUnits="userSpaceOnUse"/>
  <linearGradient y1="1.25" x2="0" y2="78.75" id="E" xlink:href="#5" gradientUnits="userSpaceOnUse"/>
  <linearGradient id="F">
   <stop id="1Q" stop-color="#fff"/>
   <stop id="1R" offset="1" stop-color="#b0b0b0"/>
  </linearGradient>
  <linearGradient x1="81.31" y1="67.36" x2="136.99" y2="137.97" id="G" xlink:href="#F" gradientUnits="userSpaceOnUse" gradientTransform="scale(1.244363,0.803624)"/>
  <linearGradient x1="7.175" y1="-26.684" x2="27.344" y2="28.22" id="H" xlink:href="#7" gradientUnits="userSpaceOnUse" gradientTransform="translate(-2.4656675e-8,1.6252707)"/>
  <linearGradient y1="19.862" x2="0" y2="4.143" id="I" xlink:href="#9" gradientUnits="userSpaceOnUse" gradientTransform="translate(-2.4656675e-8,1.6252707)"/>
  <linearGradient x1="7.175" y1="-26.684" x2="21.857" y2="30.714" id="J" xlink:href="#7" gradientUnits="userSpaceOnUse" gradientTransform="translate(-2.4656675e-8,1.6252707)"/>
  <linearGradient y1="6.804" x2="0" y2="16.03" id="K" xlink:href="#B" gradientUnits="userSpaceOnUse" gradientTransform="translate(-2.4656675e-8,1.6252707)"/>
  <linearGradient y1="6.804" x2="0" y2="16.03" id="L" xlink:href="#A" gradientUnits="userSpaceOnUse" gradientTransform="translate(-2.4656675e-8,1.6252707)"/>
  <linearGradient id="M">
   <stop id="1S" stop-color="#babdb6"/>
   <stop id="1T" offset="1" stop-color="#fff"/>
  </linearGradient>
  <linearGradient id="N">
   <stop id="1U"/>
   <stop id="1V" offset="1" stop-opacity="0"/>
  </linearGradient>
  <linearGradient id="O">
   <stop id="1W" stop-color="#fff"/>
   <stop id="1X" offset="1" stop-color="#aeaea3"/>
  </linearGradient>
  <linearGradient x1="25.633" y1="10.612" x2="38.714" y2="18.39" id="P" xlink:href="#N" gradientUnits="userSpaceOnUse" gradientTransform="matrix(-0.3902942,0,0,0.3902942,23.941786,3.1050785)"/>
  <linearGradient x1="24.366" y1="20.246" x2="32.601" y2="28.555" id="Q" xlink:href="#M" gradientUnits="userSpaceOnUse" gradientTransform="matrix(-0.3902942,0,0,0.3902942,23.941786,3.1050785)"/>
  <linearGradient x1="22.01" y1="36.51" x2="23.585" y2="14.412" id="R" xlink:href="#M" gradientUnits="userSpaceOnUse" gradientTransform="matrix(-0.3902942,0,0,0.3902942,23.941786,3.1050785)"/>
  <radialGradient cx="29.443" cy="14.817" r="22.597" id="S" xlink:href="#O" gradientUnits="userSpaceOnUse" gradientTransform="matrix(-0.8335384,0,0,0.8237576,34.441384,-3.0104955)"/>
  <radialGradient cx="29.443" cy="14.817" r="22.597" id="T" xlink:href="#O" gradientUnits="userSpaceOnUse" gradientTransform="matrix(-0.6223159,0,0,0.6150136,40.61771,2.1112279)"/>
  <linearGradient x1="22.01" y1="36.51" x2="23.585" y2="14.412" id="U" xlink:href="#M" gradientUnits="userSpaceOnUse" gradientTransform="matrix(-0.2913918,0,0,0.2913918,32.778757,6.6770872)"/>
  <linearGradient x1="24.366" y1="20.246" x2="32.601" y2="28.555" id="V" xlink:href="#M" gradientUnits="userSpaceOnUse" gradientTransform="matrix(-0.2913918,0,0,0.2913918,32.778757,6.6770872)"/>
  <linearGradient x1="25.633" y1="10.612" x2="38.714" y2="18.39" id="W" xlink:href="#N" gradientUnits="userSpaceOnUse" gradientTransform="matrix(-0.2913918,0,0,0.2913918,32.778757,6.6770872)"/>
  <linearGradient x1="22.01" y1="36.51" x2="23.585" y2="14.412" id="X" xlink:href="#M" gradientUnits="userSpaceOnUse" gradientTransform="matrix(0,0.2151592,0.2151592,0,28.353399,13.814052)"/>
  <linearGradient x1="24.366" y1="20.246" x2="32.601" y2="28.555" id="Y" xlink:href="#3" gradientUnits="userSpaceOnUse" gradientTransform="matrix(0,0.2151592,0.2151592,0,29.079207,10.432066)"/>
  <linearGradient x1="55.21" y1="29.971" x2="38.714" y2="18.39" id="Z" xlink:href="#N" gradientUnits="userSpaceOnUse" gradientTransform="matrix(0,0.2151592,0.2151592,0,31.22505,7.2910273)"/>
  <radialGradient cx="16.1" cy="18.734" r="22.597" id="a" xlink:href="#4" gradientUnits="userSpaceOnUse" gradientTransform="matrix(0,0.4595084,0.4541165,0,26.427374,5.3253957)"/>
  <radialGradient cx="24.11" cy="15.393" r="17.898" id="b" xlink:href="#2" gradientUnits="userSpaceOnUse" gradientTransform="matrix(1.0000001,0,0,0.5348504,-2.5694099e-6,5.848169)"/>
  <filter x="-0.244" y="-0.457" width="1.489" height="1.914" color-interpolation-filters="sRGB" id="c">
   <feGaussianBlur id="1Y" stdDeviation="3.64412"/>
  </filter>
 </defs>
 <g id="1">
  <path d="m 55.665606,46.425518 a 26.664639,1.0665855 0 1 1 -53.3292775,0 26.664639,1.0665855 0 1 1 53.3292775,0 z" transform="matrix(0.8819048,0,0,1.3809524,-1.576092,-17.584334)" id="d" opacity="0.8" fill="url(#C)"/>
  <path d="m 7.03125,5.7815207 c -1.108,0 -2,0.892 -2,2 l 0,23.4062503 c 12.293622,-4.599841 25.661815,-9.084527 37.9375,-12.4375 l 0,-10.9687503 c 0,-1.108 -0.892,-2 -2,-2 l -33.9375,0 z" id="e" opacity="0.6" fill="url(#J)"/>
  <path d="m 7.03125,3.09375 c -1.6888607,0 -3.0625,1.3736393 -3.0625,3.0625 l 0,35.6875 c 0,1.68886 1.3736369,3.062503 3.0625,3.0625 l 33.9375,0 c 1.688859,0 3.0625,-1.373639 3.0625,-3.0625 l 0,-35.6875 c 0,-1.6888608 -1.37364,-3.0625 -3.0625,-3.0625 l -33.9375,0 z" transform="translate(-2.4656675e-8,1.6252707)" id="f" fill="#183768"/>
  <path d="m 5.03125,8.0002707 0,35.4687503 c 0,1.108 0.892,2.000002 2,2 l 33.9375,0 c 1.108,0 2,-0.891998 2,-2 l 0,-35.4687503 c 0,0.065685 -0.05931,0.125 -0.125,0.125 l -37.6875,0 c -0.065686,-2e-7 -0.125,-0.059314 -0.125,-0.125 z" id="g" fill="#3465a4"/>
  <rect width="37.909" height="39.714" x="5.05" y="5.768" id="h" fill="url(#I)" rx="2"/>
  <path d="m 7.03125,4.65625 c -0.8311165,0 -1.5,0.6688835 -1.5,1.5 l 0,35.6875 c 0,0.831117 0.6688846,1.500001 1.5,1.5 l 33.9375,0 c 0.831117,0 1.5,-0.668882 1.5,-1.5 l 0,-35.6875 c 0,-0.8311165 -0.668883,-1.5 -1.5,-1.5 l -33.9375,0 z" transform="translate(-2.4656675e-8,1.6252707)" id="i" opacity="0.8" fill="none" stroke="url(#D)"/>
  <path d="m 27.0625,19.59375 -5.53125,0.0625 a 0.99873343,0.99873343 0 0 0 -0.5625,0.1875 c -0.02421,-0.0011 -0.03807,-0.03074 -0.0625,-0.03125 -0.668542,-0.01392 -1.377168,0.264026 -1.90625,0.75 A 0.99873343,0.99873343 0 0 0 18.84375,20.75 L 16.5,24.3125 a 0.99873343,0.99873343 0 0 0 0.34375,1.40625 l 0.84375,0.5 -3.65625,0.03125 a 0.99873343,0.99873343 0 0 0 -0.625,1.78125 l 0.6875,0.5625 -0.875,1.65625 0,0.03125 c -0.448421,0.819585 -0.305379,1.723077 0.03125,2.375 a 0.99873343,0.99873343 0 0 0 0,0.03125 0.99873343,0.99873343 0 0 0 0.09375,0.6875 L 16.25,38.71875 a 0.99873343,0.99873343 0 0 0 0.09375,0.15625 c 0.897983,1.146853 2.336502,1.307993 3.59375,1.28125 0.01,-2.12e-4 0.02131,2.36e-4 0.03125,0 l 3.03125,0 a 0.99873343,0.99873343 0 0 0 1,-1 l 0,-1.4375 1.90625,3.53125 a 0.99873343,0.99873343 0 0 0 1.875,-0.4375 l 0.03125,-0.6875 1.03125,0 0.09375,0 0,-0.03125 c 1.20427,0.06935 2.377935,-0.506264 2.96875,-1.65625 l 0.03125,-0.03125 2.625,-4.96875 a 0.99873343,0.99873343 0 0 0 0.125,-0.59375 c 0.01613,-0.02639 0.04713,-0.03536 0.0625,-0.0625 C 35.077016,32.203722 35.162655,31.474576 35,30.75 a 0.99873343,0.99873343 0 0 0 -0.09375,-0.21875 l -1.9375,-3.8125 A 0.99873343,0.99873343 0 0 0 31.5625,26.3125 L 30.25,27.125 32.4375,23.5625 A 0.99873343,0.99873343 0 0 0 31.125,22.15625 l -0.59375,0.3125 -0.5,-0.96875 c -0.0096,-0.02185 -0.02126,-0.04091 -0.03125,-0.0625 -0.519568,-1.123081 -1.588172,-1.881879 -2.90625,-1.84375 -0.01085,3.14e-4 -0.02037,-4.22e-4 -0.03125,0 z m -2.875,5.71875 0.3125,0.53125 -0.53125,0.34375 a 0.99873343,0.99873343 0 0 0 0.5625,1.84375 l 4.1875,0.03125 -1.46875,0.90625 a 0.99873343,0.99873343 0 0 0 -0.34375,1.3125 l 1.5,2.8125 -0.59375,0 -0.03125,-0.625 a 0.99873343,0.99873343 0 0 0 -1.875,-0.40625 L 24,35.53125 24,34.0625 a 0.99873343,0.99873343 0 0 0 -1,-1 l -3.40625,-0.03125 0.5625,-0.875 0.5,0.28125 A 0.99873343,0.99873343 0 0 0 22,31.09375 l -1.84375,-3.40625 1.0625,0.625 A 0.99873343,0.99873343 0 0 0 22.5625,28 l 1.625,-2.6875 z" transform="translate(-2.4656675e-8,1.6252707)" id="j" fill="#204a87" fill-rule="evenodd"/>
  <g transform="matrix(0.2604914,0,0,0.2604914,13.58034,21.905571)" id="k" fill="url(#E)">
   <g transform="matrix(0.968751,0,0,0.98751,1.250108,-0.250791)" id="1Z">
    <path d="m 54.962334,37.280594 17.137445,-10.26158 7.678476,14.834674 c 1.854703,8.105157 -8.309067,11.07953 -16.469762,10.596198 L 54.962334,37.280594 z" id="1a" fill-rule="evenodd"/>
    <path d="m 51.067463,47.876791 -9.013855,15.950064 9.013855,16.173146 0.222557,-6.469256 8.234881,0 c 3.004618,0.260249 6.899489,-1.710269 8.346159,-4.573095 L 78.442863,49.549882 c -3.486837,3.457705 -7.970419,4.350012 -13.131295,4.350012 l -13.910257,0 -0.333848,-6.023103 0,0 z" id="1b" fill-rule="evenodd"/>
    <path d="M 30.928372,28.211849 13.659051,18.174838 22.872119,4.2455192 c 6.169776,-5.5594355 13.697636,1.9035315 17.23712,9.2894908 l -9.180867,14.676839 0,0 z" id="1c" fill-rule="evenodd"/>
    <path d="M 42.061814,26.481749 60.350049,26.63881 70.082475,10.889601 64.3314,13.834655 60.334303,6.6182881 c -1.231388,-2.7593195 -4.840762,-5.216 -8.040161,-5.094167 L 30.23359,1.680123 c 4.708574,1.3772547 7.66319,4.8731813 10.168207,9.395745 l 6.751847,12.189796 -5.09183,3.216085 0,0 z" id="1d" fill-rule="evenodd"/>
    <path d="m 0.44400982,27.380869 5.35080488,4.101242 -5.03605383,9.464382 c -2.51803307,4.364131 1.80775293,8.61555 4.56391483,10.095348 2.7132807,1.456777 6.9245853,1.629975 10.8589973,1.577399 L 23.263621,41.26197 28.614426,44.101291 19.329208,27.22313 0.44400982,27.380869 z" id="1e" fill-rule="evenodd"/>
    <path d="M 1.2308874,49.306704 12.719387,70.128368 c 2.308191,2.891896 6.662288,3.575438 11.173749,3.470275 l 12.118001,0 0,-19.717481 -22.976999,-0.157739 C 9.4669308,53.933737 4.7980948,53.197619 1.2308874,49.306704 z" id="1f" fill-rule="evenodd"/>
   </g>
  </g>
  <path d="m 12.15625,3 c -0.398494,-0.00808 -0.753401,0.2454269 -0.875,0.625 l -1,3.125 L 7.6875,9.03125 C 7.4852468,9.2046326 7.3722513,9.4515358 7.375,9.71875 l 0.0625,1.25 a 0.22879823,0.22879823 0 0 0 0,0.03125 c 0.0088,0.05465 0.043986,0.104375 0.0625,0.15625 -0.1020829,0.07092 -0.2154613,0.111372 -0.28125,0.21875 L 6.25,13 5.71875,12.90625 c -0.3731721,-0.03413 -0.773904,0.143938 -0.9375,0.5 C 4.617654,13.762312 4.7249353,14.170676 5,14.4375 L 5.90625,15.25 a 0.22879823,0.22879823 0 0 0 0,0.03125 C 6.0368036,15.393211 6.2081329,15.412773 6.375,15.4375 L 5.75,16.125 a 0.22879823,0.22879823 0 0 0 -0.03125,0 c -0.2991694,0.353479 -0.2603074,0.886718 0.0625,1.21875 l 1.0625,1.0625 -0.3125,0.65625 c -0.1125317,0.263211 -0.09215,0.586001 0.0625,0.84375 0.1546494,0.25775 0.4083947,0.382205 0.6875,0.40625 L 9.5,20.5625 c 0.1719266,0.02081 0.344116,0.01294 0.5,-0.0625 a 0.22879823,0.22879823 0 0 0 0,-0.03125 l 0.9375,-0.5 0.875,1.4375 c 0.155838,0.245038 0.428051,0.389639 0.71875,0.40625 0.2907,0.01661 0.567583,-0.08721 0.75,-0.3125 a 0.22879823,0.22879823 0 0 0 0,-0.03125 l 1.1875,-1.59375 3.84375,-0.28125 0.75,0.625 c 0.26878,0.224889 0.651277,0.273422 0.96875,0.125 l 1.15625,-0.5 0.03125,0 0.75,0.09375 c 0.171927,0.02081 0.344116,0.01294 0.5,-0.0625 A 0.22879823,0.22879823 0 0 0 22.5,19.84375 l 0.46875,-0.25 0.5625,0.875 c 0.155838,0.245038 0.428051,0.389639 0.71875,0.40625 0.290699,0.01661 0.567583,-0.08721 0.75,-0.3125 a 0.22879823,0.22879823 0 0 0 0,-0.03125 l 0.84375,-1.09375 2.71875,-0.21875 0.46875,0.40625 0.03125,0 c 0.257568,0.193317 0.608917,0.252294 0.90625,0.125 l 1.0625,-0.46875 c 0.153019,-0.07642 0.256119,-0.23151 0.34375,-0.375 l 0.1875,0.0625 1.1875,1.375 c 0.13318,0.165972 0.324663,0.239721 0.53125,0.28125 l 0.1875,0.21875 a 0.22879823,0.22879823 0 0 0 0.03125,0 c 0.171059,0.176389 0.400426,0.28125 0.65625,0.28125 0.183997,1e-6 0.331799,-0.05923 0.46875,-0.15625 l 0.1875,0.09375 0,0.03125 c -0.0568,0.390691 0.141358,0.794276 0.5,0.96875 0.358642,0.174475 0.76489,0.06084 1.03125,-0.21875 l 0.375,-0.375 c 0.353479,0.299169 0.886718,0.260308 1.21875,-0.0625 l 0.375,-0.375 0.0625,0.03125 c 0.259565,0.129904 0.550211,0.135374 0.8125,0 0.26229,-0.135375 0.426078,-0.412311 0.46875,-0.6875 L 39.8125,19.15625 C 39.841852,18.970655 39.833781,18.793191 39.75,18.625 L 39.65625,18.40625 40.125,18.125 c 0.240808,-0.163571 0.366996,-0.438638 0.375,-0.71875 0.008,-0.280115 -0.105397,-0.567372 -0.34375,-0.75 L 39.4375,16.125 l -0.125,-1.75 0.25,-0.3125 c 0.224889,-0.26878 0.273422,-0.651277 0.125,-0.96875 L 39.34375,12.3125 c -0.100979,-0.236083 -0.313571,-0.419701 -0.5625,-0.5 -0.239595,-0.07729 -0.496768,-0.03018 -0.71875,0.09375 L 38,11.8125 C 37.845416,11.619854 37.621101,11.521052 37.375,11.5 a 0.22879823,0.22879823 0 0 0 -0.03125,0 L 36.6875,11.46875 c -0.12227,-0.001 -0.232461,0.04759 -0.34375,0.09375 L 36.3125,11.53125 c -0.237494,-0.310601 -0.664391,-0.441071 -1.03125,-0.3125 -0.0099,0.0035 -0.02143,-0.0038 -0.03125,0 L 35.15625,11.125 c -0.164197,-0.203034 -0.426554,-0.302963 -0.6875,-0.3125 l -1.5625,0 c -0.0102,5.4e-4 -0.02109,-8.84e-4 -0.03125,0 -0.0138,-0.211463 -0.102522,-0.408555 -0.25,-0.5625 L 31.21875,8.75 C 31.049326,8.574189 30.827351,8.4604734 30.5625,8.46875 c -0.264851,0.00828 -0.52376,0.1198353 -0.6875,0.3125 l -0.09375,0.125 C 29.729375,8.8877361 29.679646,8.8525464 29.625,8.84375 L 28.75,8.78125 a 0.22879823,0.22879823 0 0 0 -0.03125,0 c -0.02179,-4.923e-4 -0.04078,-0.00108 -0.0625,0 L 28.3125,7.96875 C 28.2125,7.7063662 27.987811,7.5178174 27.71875,7.4375 l -3.5,-1.03125 C 23.747689,6.2589447 23.24479,6.5301233 23.09375,7 L 22.9375,7.5 21.625,6.09375 C 21.455576,5.917939 21.233601,5.8042234 20.96875,5.8125 20.703898,5.8207763 20.44499,5.9323355 20.28125,6.125 L 20,6.4375 C 19.889755,6.3750707 19.784486,6.3244264 19.65625,6.3125 a 0.22879823,0.22879823 0 0 0 -0.03125,0 L 18.46875,6.25 a 0.22879823,0.22879823 0 0 0 -0.03125,0 c -0.07056,0.00525 -0.120677,0.041248 -0.1875,0.0625 l -0.5625,-1.375 c -0.1,-0.2623838 -0.324689,-0.4509326 -0.59375,-0.53125 l -4.6875,-1.375 C 12.324953,3.0055235 12.241495,3.0020309 12.15625,3 z" transform="translate(0,5.0004885)" id="l" fill="url(#b)" filter="url(#c)" fill-rule="evenodd" stroke-width="0.39"/>
  <path d="m 7.03125,5.7815207 c -1.108,0 -2,0.892 -2,2 l 0,23.4062503 c 12.293622,-4.599841 25.661815,-9.084527 37.9375,-12.4375 l 0,-10.9687503 c 0,-1.108 -0.892,-2 -2,-2 l -33.9375,0 z m 3,3.65625 27.9375,0 c 0.627369,0 1.09375,0.4663791 1.09375,1.0937503 l 0,5.03125 c 0,0.627371 -0.466379,1.09375 -1.09375,1.09375 l -27.9375,0 c -0.6273714,0 -1.09375,-0.466379 -1.09375,-1.09375 l 0,-5.03125 c 0,-0.6273712 0.4663787,-1.0937503 1.09375,-1.0937503 z" id="m" opacity="0.6" fill="url(#H)"/>
  <rect width="31.14" height="8.231" x="8.43" y="8.929" id="n" fill="url(#K)" stroke="url(#L)" stroke-linecap="square" rx="1.612"/>
  <path d="m 12.15625,3 c -0.398494,-0.00808 -0.753401,0.2454269 -0.875,0.625 l -1,3.125 L 7.6875,9.03125 C 7.4852468,9.2046326 7.3722513,9.4515358 7.375,9.71875 l 0.0625,1.25 a 0.22879823,0.22879823 0 0 0 0,0.03125 c 0.0088,0.05465 0.043986,0.104375 0.0625,0.15625 -0.1020829,0.07092 -0.2154613,0.111372 -0.28125,0.21875 L 6.25,13 5.71875,12.90625 c -0.3731721,-0.03413 -0.773904,0.143938 -0.9375,0.5 C 4.617654,13.762312 4.7249353,14.170676 5,14.4375 L 5.90625,15.25 a 0.22879823,0.22879823 0 0 0 0,0.03125 C 6.0368036,15.393211 6.2081329,15.412773 6.375,15.4375 L 5.75,16.125 a 0.22879823,0.22879823 0 0 0 -0.03125,0 c -0.2991694,0.353479 -0.2603074,0.886718 0.0625,1.21875 l 1.0625,1.0625 -0.3125,0.65625 c -0.1125317,0.263211 -0.09215,0.586001 0.0625,0.84375 0.1546494,0.25775 0.4083947,0.382205 0.6875,0.40625 L 9.5,20.5625 c 0.1719266,0.02081 0.344116,0.01294 0.5,-0.0625 a 0.22879823,0.22879823 0 0 0 0,-0.03125 l 0.9375,-0.5 0.875,1.4375 c 0.155838,0.245038 0.428051,0.389639 0.71875,0.40625 0.2907,0.01661 0.567583,-0.08721 0.75,-0.3125 a 0.22879823,0.22879823 0 0 0 0,-0.03125 l 1.1875,-1.59375 3.84375,-0.28125 0.75,0.625 c 0.26878,0.224889 0.651277,0.273422 0.96875,0.125 l 1.15625,-0.5 0.03125,0 0.75,0.09375 c 0.171927,0.02081 0.344116,0.01294 0.5,-0.0625 A 0.22879823,0.22879823 0 0 0 22.5,19.84375 l 0.46875,-0.25 0.5625,0.875 c 0.155838,0.245038 0.428051,0.389639 0.71875,0.40625 0.290699,0.01661 0.567583,-0.08721 0.75,-0.3125 a 0.22879823,0.22879823 0 0 0 0,-0.03125 l 0.84375,-1.09375 2.71875,-0.21875 0.46875,0.40625 0.03125,0 c 0.257568,0.193317 0.608917,0.252294 0.90625,0.125 l 1.0625,-0.46875 c 0.153019,-0.07642 0.256119,-0.23151 0.34375,-0.375 l 0.1875,0.0625 1.1875,1.375 c 0.13318,0.165972 0.324663,0.239721 0.53125,0.28125 l 0.1875,0.21875 a 0.22879823,0.22879823 0 0 0 0.03125,0 c 0.171059,0.176389 0.400426,0.28125 0.65625,0.28125 0.183997,1e-6 0.331799,-0.05923 0.46875,-0.15625 l 0.1875,0.09375 0,0.03125 c -0.0568,0.390691 0.141358,0.794276 0.5,0.96875 0.358642,0.174475 0.76489,0.06084 1.03125,-0.21875 l 0.375,-0.375 c 0.353479,0.299169 0.886718,0.260308 1.21875,-0.0625 l 0.375,-0.375 0.0625,0.03125 c 0.259565,0.129904 0.550211,0.135374 0.8125,0 0.26229,-0.135375 0.426078,-0.412311 0.46875,-0.6875 L 39.8125,19.15625 C 39.841852,18.970655 39.833781,18.793191 39.75,18.625 L 39.65625,18.40625 40.125,18.125 c 0.240808,-0.163571 0.366996,-0.438638 0.375,-0.71875 0.008,-0.280115 -0.105397,-0.567372 -0.34375,-0.75 L 39.4375,16.125 l -0.125,-1.75 0.25,-0.3125 c 0.224889,-0.26878 0.273422,-0.651277 0.125,-0.96875 L 39.34375,12.3125 c -0.100979,-0.236083 -0.313571,-0.419701 -0.5625,-0.5 -0.239595,-0.07729 -0.496768,-0.03018 -0.71875,0.09375 L 38,11.8125 C 37.845416,11.619854 37.621101,11.521052 37.375,11.5 a 0.22879823,0.22879823 0 0 0 -0.03125,0 L 36.6875,11.46875 c -0.12227,-0.001 -0.232461,0.04759 -0.34375,0.09375 L 36.3125,11.53125 c -0.237494,-0.310601 -0.664391,-0.441071 -1.03125,-0.3125 -0.0099,0.0035 -0.02143,-0.0038 -0.03125,0 L 35.15625,11.125 c -0.164197,-0.203034 -0.426554,-0.302963 -0.6875,-0.3125 l -1.5625,0 c -0.0102,5.4e-4 -0.02109,-8.84e-4 -0.03125,0 -0.0138,-0.211463 -0.102522,-0.408555 -0.25,-0.5625 L 31.21875,8.75 C 31.049326,8.574189 30.827351,8.4604734 30.5625,8.46875 c -0.264851,0.00828 -0.52376,0.1198353 -0.6875,0.3125 l -0.09375,0.125 C 29.729375,8.8877361 29.679646,8.8525464 29.625,8.84375 L 28.75,8.78125 a 0.22879823,0.22879823 0 0 0 -0.03125,0 c -0.02179,-4.923e-4 -0.04078,-0.00108 -0.0625,0 L 28.3125,7.96875 C 28.2125,7.7063662 27.987811,7.5178174 27.71875,7.4375 l -3.5,-1.03125 C 23.747689,6.2589447 23.24479,6.5301233 23.09375,7 L 22.9375,7.5 21.625,6.09375 C 21.455576,5.917939 21.233601,5.8042234 20.96875,5.8125 20.703898,5.8207763 20.44499,5.9323355 20.28125,6.125 L 20,6.4375 C 19.889755,6.3750707 19.784486,6.3244264 19.65625,6.3125 a 0.22879823,0.22879823 0 0 0 -0.03125,0 L 18.46875,6.25 a 0.22879823,0.22879823 0 0 0 -0.03125,0 c -0.07056,0.00525 -0.120677,0.041248 -0.1875,0.0625 l -0.5625,-1.375 c -0.1,-0.2623838 -0.324689,-0.4509326 -0.59375,-0.53125 l -4.6875,-1.375 C 12.324953,3.0055235 12.241495,3.0020309 12.15625,3 z" id="o" fill="#888a85" fill-rule="evenodd" stroke-width="0.39"/>
  <path d="m 20.423045,17.768499 0.689949,1.103918 -1.448893,0.620954 -1.034923,-0.827939 -4.62266,0.344975 -1.448893,1.931857 -1.310903,-2.138843 -1.655878,0.896935 -2.2078372,-0.27598 0.5519599,-1.172913 -1.5178879,-1.517888 2.1388413,-2.414823 -2.0698466,0.27598 -0.8969346,-0.827939 1.1729145,0.206986 1.241908,-2.138843 1.7938679,-0.413969 -1.4488932,-0.482965 -0.068995,-1.2419081 2.8287906,-2.4838168 1.034924,-3.311756 4.691654,1.3798983 1.172913,2.7597965 0.41397,-0.8969339 1.172913,0.068995 0,1.1039186 1.379899,-1.5868831 1.862862,2.0008524 0,2.828791 -3.242761,2.828792 2.069848,1.172913 -0.069,1.172914 -1.172914,1.034924 z" id="p" fill="url(#S)" fill-rule="evenodd" stroke-width="0.39"/>
  <path d="m 16.352345,11.972925 0.344974,2.552812 -0.827938,1.310903 1.793868,0.55196 1.034924,2.069848 -4.691655,0.344973 -1.103918,1.586884 -0.896934,-2.414822 1.724872,-1.103919 2.621807,0.758944 -1.034923,-1.379897 0.551959,-2.414823 0.482964,-1.862863 z" id="q" opacity="0.77" fill="url(#R)" fill-rule="evenodd"/>
  <path d="m 15.938375,12.386895 -1.724872,2.690801 -2.828791,-1.931857 -1.7248733,0.965929 -1.3798973,-1.172913 -1.2419092,1.103918 1.1729133,-1.931858 2.6908025,-0.620954 3.38075,-1.6558774 c 0,0 4.829644,1.4488924 4.553664,1.4488924 -0.275979,0 -4.001705,0.069 -4.001705,0.069 l -0.620954,-0.896934 -1.655878,0.758944 3.38075,1.172914 z" id="r" opacity="0.618" fill="url(#Q)" fill-rule="evenodd"/>
  <path d="M 12.419636,4.4524804 16.490335,5.8323786 17.042294,7.3502668 14.696467,9.0061447 12.48863,6.8673023 12.419636,4.4524804 z" id="s" fill="#fff" fill-rule="evenodd"/>
  <path d="M 12.350641,4.5904703 11.453706,7.4882564 9.7978293,8.9371498 13.17858,8.1782056 c 0,0 0.965928,1.1039185 0.551958,1.1039185 -0.413969,0 -4.8986379,0.5519595 -4.8986379,0.5519595 L 8.9008947,10.731017 15.248426,9.5581038 12.48863,7.0052922 12.350641,4.5904703 z" id="t" opacity="0.135" fill="url(#P)" fill-rule="evenodd"/>
  <path d="M 21.56494,7.9665818 21.388974,12.110915 20.051206,10.459677 18.629178,10.386043 18.146213,9.3511191 15.731391,9.6960939 15.179432,9.2131295 18.698173,9.0751394 19.043147,10.041068 20.561035,9.2821241 21.56494,7.9665818 z" id="u" fill="#fff" fill-rule="evenodd"/>
  <path d="m 15.179432,13.766793 -1.172914,1.379899 -2.690801,-1.793868 -1.6558783,0.896933 -2.6908012,2.552812 2.9667812,-2.276832 1.6225403,0.512149 2.655144,1.005739 0.965929,-2.276832 z" id="v" fill="#fff" fill-rule="evenodd"/>
  <path d="m 30.151681,17.624728 0.515113,0.82418 -1.081737,0.463601 -0.772669,-0.618135 -3.451256,0.257557 -1.081737,1.442315 -0.978714,-1.59685 -1.236271,0.669647 -1.648361,-0.206045 0.0069,-0.817809 -0.728071,-1.19113 0.902261,-1.687131 -0.85075,0.09028 -0.669647,-0.618135 0.354751,-0.308524 0.637791,-1.307439 1.165646,0.153992 -1.776325,-0.12905 1.627077,-1.448144 1.996197,-1.044053 0.888435,-3.2828941 3.502767,1.0302257 0.875691,2.0604504 0.309068,-0.6696455 0.875692,0.051511 0,0.8241805 1.030226,-1.1847595 1.390804,1.4938265 0,2.111962 -2.42103,2.111963 1.545339,0.875691 -0.05151,0.875693 -0.875692,0.772669 z" id="w" fill="url(#T)" fill-rule="evenodd" stroke-width="0.291"/>
  <path d="m 27.112515,13.297779 0.257556,1.905918 -0.618134,0.978714 1.339293,0.412091 0.77267,1.545339 -3.502768,0.257555 -0.82418,1.18476 -0.669647,-1.802895 1.287781,-0.824181 1.957429,0.566625 -0.772668,-1.030225 0.41209,-1.802896 0.360578,-1.390805 z" id="x" opacity="0.77" fill="url(#U)" fill-rule="evenodd"/>
  <path d="m 26.803447,13.606847 -1.287781,2.00894 -2.111962,-1.442315 -1.287783,0.721158 -1.030225,-0.875692 -0.927203,0.82418 0.875691,-1.442316 2.008941,-0.463601 2.524052,-1.23627 c 0,0 3.60579,1.081736 3.399745,1.081736 -0.206045,0 -2.987655,0.05151 -2.987655,0.05151 l -0.463601,-0.669647 -1.236271,0.566624 2.524052,0.875692 z" id="y" opacity="0.618" fill="url(#V)" fill-rule="evenodd"/>
  <path d="m 24.176373,7.6830512 3.039165,1.0302253 0.41209,1.133249 -1.751383,1.2362695 -1.648361,-1.5968495 -0.05151,-1.8028943 z" id="z" fill="#eeeeec" fill-rule="evenodd"/>
  <path d="m 24.124862,7.7860738 -0.669648,2.1634737 -1.23627,1.0817365 2.524053,-0.566624 c 0,0 0.721158,0.82418 0.412089,0.82418 -0.309067,0 -3.6573,0.412091 -3.6573,0.412091 l 0.05151,0.669646 4.739038,-0.875692 -2.060451,-1.9059165 -0.103022,-1.8028947 z" id="10" opacity="0.135" fill="url(#W)" fill-rule="evenodd"/>
  <path d="m 37.882302,13.05335 0.608561,-0.380352 0.342316,0.798738 -0.456421,0.570528 0.190176,2.548353 1.064983,0.798738 -1.179089,0.722667 0.494457,0.912844 -0.152141,1.217124 -0.646596,-0.304281 -0.836773,0.836772 -1.331231,-1.179088 0.152141,1.141053 -0.456421,0.494457 0.114106,-0.646598 -1.17909,-0.684632 -0.228211,-0.988912 -0.266246,0.798737 -0.684631,0.03804 -1.369265,-1.559441 -1.825686,-0.570526 -0.80212,-2.12333 c -0.330004,-0.673342 0.569873,0.305074 -0.504478,-1.167538 l 1.010484,-0.112447 0.03803,-0.820245 0.724327,-0.05788 1.093192,-0.587056 1.103019,-1.026948 1.55944,0 1.55944,1.787651 0.646596,-1.141054 0.646599,0.03803 0.570527,0.646598 z" id="11" fill="url(#a)" fill-rule="evenodd" stroke-width="0.215"/>
  <path d="m 33.242015,17.997916 1.407301,-0.190175 0.722667,0.456421 0.304281,-0.988913 1.141055,-0.570527 0.190174,2.586389 0.874809,0.608562 -1.331229,0.494457 -0.608563,-0.950878 0.418387,-1.445336 -0.760702,0.570527 -1.331231,-0.304281 -1.026949,-0.266246 z" id="12" opacity="0.77" fill="url(#X)" fill-rule="evenodd"/>
  <path d="m 34.196033,14.844142 1.48337,0.950878 -1.064983,1.55944 0.532492,0.950879 -0.646597,0.760702 0.608562,0.684632 -1.064984,-0.646596 -0.342316,-1.483371 -0.912843,-1.863721 c 0,0 0.798737,-2.66246 0.798737,-2.510319 0,0.15214 0.03804,2.206039 0.03804,2.206039 l -0.494458,0.342315 0.418387,0.912843 0.646597,-1.863721 z" id="13" opacity="0.618" fill="url(#Y)" fill-rule="evenodd"/>
  <path d="m 33.964683,14.61279 0.760703,-2.244072 0.836773,-0.304281 0.912842,1.293194 -1.179089,1.217124 -1.331229,0.03804 z" id="14" fill="#d3d7cf" fill-rule="evenodd"/>
  <path d="m 32.04391,13.680929 1.597475,0.494458 0.798737,0.912843 -0.418386,-1.863722 c 0,0 0.608561,-0.532492 0.608561,-0.30428 0,0.22821 0.304282,2.700493 0.304282,2.700493 l 0.494456,-0.03803 -0.646597,-3.499233 -1.407299,1.521405 -1.331229,0.07607 z" id="15" opacity="0.135" fill="url(#Z)" fill-rule="evenodd"/>
 </g>
</svg>
